<svg xmlns="http://www.w3.org/2000/svg" width="201.001" height="86" viewBox="0 0 201.001 86"><path d="M-2273-2779h-201v-86h201v86Zm-90.17-67.691-15.4,46.69h12.111l2.03-6.719h16.52l2.031,6.72h12.459l-15.33-46.69Zm27.09,0h0l15.33,26.11V-2800h11.34v-20.58l15.12-26.11h-13.3l-7.42,14.351-7.56-14.351Zm-73.43,0V-2800h26.53v-9.17h-15.19v-37.52Zm-40.88,0V-2800h11.339v-15.19h5.39c10.121,0,16.661-6.347,16.661-16.17,0-9.742-6.328-15.33-17.36-15.33Zm99.68,30.8h-10.92l5.459-17.43,5.46,17.429Zm-85.19-8.61h-3.151v-12.88h3.92c3.978,0,6.65,2.588,6.65,6.439a6.052,6.052,0,0,1-1.951,4.743A8.217,8.217,0,0,1-2435.9-2824.5Z" transform="translate(2474 2865)" fill="#5fc8ef"/></svg>